<svg fill="none" height="24" viewBox="0 0 35 24" width="35" xmlns="http://www.w3.org/2000/svg"><path d="m1.52161.75c-.42021 0-.760868.33579-.760868.75v21c0 .4142.340658.75.760868.75h31.95649c.4203 0 .7609-.3358.7609-.75v-21c0-.41421-.3406-.75-.7609-.75z" fill="#006fd8"/><g fill="#fff"><path d="m3.71973 9.69009h1.17273l-.58621-1.51626z"/><path d="m9.95605 14.7793v.7041h1.97235v.7583h-1.97235v.8125h2.18545l1.0128-1.1375-.9594-1.1374z"/><path d="m25.3604 8.17383-.6397 1.51626h1.2262z"/><path d="m15.6594 17.487v-3.0866l-1.386 1.5163z"/><path d="m18.2713 15.2669c-.0533-.3249-.2667-.4876-.5867-.4876h-1.1192v.9747h1.1728c.3198.0001.5331-.1623.5331-.4871z"/><path d="m22.0022 15.6463c.1067-.0543.1602-.2169.1602-.379.0533-.2164-.0535-.3249-.1602-.3791-.1063-.0542-.2664-.0542-.4261-.0542h-1.0663v.8665h1.0662c.1597 0 .3198 0 .4262-.0542z"/><path clip-rule="evenodd" d="m29.6782 7.41543v-.64981h.0002 2.3987v5.30678h-2.3454-.0535-.1063l-.48-.8121v.2707.5414h-3.0915l-.3198-.8662h-.7461l-.3198.8662h-1.5993c-.6397 0-1.1192-.1622-1.439-.3249v.3249h-3.8379v-1.1913c0-.0926 0-.1325-.0198-.1496-.0148-.0129-.0409-.0129-.0867-.0129h-.1069v1.408h-.0533-6.1301-1.226v-.0543-.5955l-.26641.6497h-1.54568l-.2667-.6497v.5955.0543h-3.09137l-.31982-.8664h-.69292l-.31998.8121-.01932.0543h-.03403-2.718573-.022538l.022538-.0543 1.225863-2.76166 1.06625-2.54502h2.29204.05335l.26655.64981v-.64981h.79963 1.91886l.58622 1.35382.58659-1.35382h8.58205c.4264 0 .7462.10849 1.0127.32499v-.27078-.05421h2.3986v.32499c.4262-.21658.9062-.32499 1.4925-.32499h3.4115l.32.64981v-.64981h2.505zm-18.6029 3.89907h.533v-3.79054h-1.4394l-1.06602 2.59914-.01709.0562-.48296-1.11415-.67253-1.48698h-.00184l-.02514-.05428h-1.09248-.31974v3.62801l-1.49248-3.62801h-1.33249l-1.57689 3.79061h.93701l.37318-.8122h1.81253l.3731.8122h1.81223v-2.97836l1.27921 2.97836h.46126.2851.03925l1.23999-2.85562v.00148l.0534-.12422v2.65376.3246zm4.2112-2.97845h-2.0789v.70393h2.0256v.75805h-2.0256v.75837h2.0789v.812h-2.985v-3.84453h2.985zm3.8049 1.39842c-.001-.00066-.0021-.0013-.003-.00209-.1594-.1686-.3373-.20497-.3373-.20497.2618-.10662.626-.4228.6383-.99909-.006-.41843-.1637-.68266-.4249-.842-.2666-.16245-.5866-.16245-1.066-.16245h-2.0258v3.79063h.906v-1.35379h.9598c.2513 0 .4027.00086.4825.05339.0555.024.1065.0577.1569.1089.1601.2166.1601.5416.1601.7581v.4334h.7994v-.7581c0-.0329-.0007-.0634-.002-.0932l.0002-.0047-.0003-.0043-.0002-.0043-.0009-.0153c-.0041-.2966-.0867-.49881-.1888-.63478-.0147-.02079-.032-.04252-.0521-.06417zm1.792 1.58003h-.9063v-3.79061h.9063zm10.3943 0h.0001v.0001h-.0001zm0 0v-3.7362h-.9066v2.6533l-1.5455-2.6533h-1.3325v2.11171.10818 1.22301.1851l-1.4928-3.62807h-.7994-.5333l-1.2258 2.97827h-.3731c-.2665 0-.4795-.0542-.6398-.2169-.213-.2166-.2663-.48729-.2663-.9206 0-.37902.1067-.70385.2663-.86622.2136-.16276.3732-.21673.693-.21673h.8531v-.81218h-.8531c-.5862 0-1.0661.10801-1.3324.43315-.3731.43307-.4796.97494-.4796 1.51642 0 .70386.1597 1.13706.4796 1.46196.3196.3249.853.4331 1.2792.4331h1.0127l.3198-.8662h1.8658l.3199.8122h.9062v.0023h.9006v-.4955l.0055.0056v-2.3826l1.7057 2.8702z" fill-rule="evenodd"/><path d="m18.3281 9.10248c.0155-.0169.0296-.03606.0416-.05802.0483-.07764.1036-.21751.0738-.40838-.0012-.01753-.0044-.03373-.008-.04938-.001-.00436-.0009-.00818-.002-.01254l-.0006.00008c-.0265-.09275-.0942-.14976-.1617-.18433-.1069-.05397-.2668-.05397-.4266-.05397h-1.0663v.86653h1.0663c.1598 0 .3198 0 .4266-.05428.016-.00825.0303-.01946.044-.03216l.0001.0007c.0001-.00008.0056-.00584.0128-.01425z"/><path clip-rule="evenodd" d="m34.156 15.7011c.1598.2707.2663.6499.2663 1.0289 0 .0354-.0014.07-.0034.1051l.0031.003c-.0011.0122-.0026.0244-.0041.0366l-.0024.0195c-.046.6316-.3553 1.161-.8461 1.4602-.3198.2167-.7999.2708-1.2793.2708h-2.2923v-.1085-.2166c-.2665.2166-.7459.3251-1.226.3251h-7.2492v-.1085-1.137c0-.1625 0-.1625-.1601-.1625h-.1063v1.2995.1085h-2.3988v-.1085-1.3537c-.3731.1627-.853.1627-1.2258.1627h-.2667v.7039.5415h-.0531-.0533-.1225-2.7029-.0535l-.6681-.7832-.7707.7832h-4.6908v-4.8791-.4278-.1626h4.2109.3631.2232l.693.8123.7464-.8123h3.1978c.32 0 .9599.0542 1.2264.3248v-.1621-.1627h2.8785c.2663 0 .8531.0543 1.1727.3249v-.1621-.1627h4.3708v.3248c.2135-.2164.6929-.3248 1.0663-.3248h2.4518v.3248s.4034-.3248.7358-.3248h2.5668v.1627h.0025zm-17.5907.704h1.0663c.7993 0 1.5456-.2168 1.5456-1.2997 0-.1418-.0163-.2665-.0443-.3787-.2326-.5668-.8466-.7042-1.3949-.7042h-2.825l-1.1195 1.2453-.027.0284-.199-.2205-.9466-1.0533h-3.46479v3.7905h3.41139l1.1727-1.2457.0498.0583.0035-.004 1.0198 1.1914h1.752v-.5957-.3249-.3251zm6.3967-.0542c.1065.162.1599.379.1599.704v.7579h-.9061v-.4872c0-.2169 0-.5957-.1601-.7584-.1063-.1621-.3198-.1621-.6394-.1621h-.9594v1.4078h-.9061v-3.8447h2.0254c.4261 0 .7992 0 1.0662.1623.2663.1626.4795.4334.4795.8666 0 .5955-.373.9205-.6396 1.0289.2666.1079.4264.2165.4797.3249zm1.599-1.5706h2.0791v-.8121h-2.985v3.8447h2.985v-.8121h-2.0791v-.7583h2.0256v-.7582h-2.0256zm4.3177 3.0326h-1.7058v-.8121h1.7058c.1596 0 .2665 0 .3733-.1084.0534-.0543.1064-.1624.1064-.2708 0-.1086-.053-.2164-.1064-.2706-.0535-.0542-.1603-.1084-.3201-.1084-.0704-.0044-.1418-.0082-.2137-.0119-.7994-.0418-1.6519-.0864-1.6519-1.1793 0-.5415.3198-1.1373 1.2793-1.1373h1.759v.9204h-1.6523c-.1599 0-.2667 0-.3734.0542-.1063.0543-.1063.1627-.1063.2709 0 .1625.1063.2167.213.2705.1068.0542.2133.0542.3198.0542h.4798c.4798 0 .7995.1084 1.0127.325.16.1626.2667.4333.2667.8123 0 .812-.4798 1.1913-1.3859 1.1913zm3.4647 0c.5332 0 .9065-.1624 1.1195-.3793.2131-.2163.3197-.487.3197-.812 0-.0702-.0069-.1336-.0165-.1943-.1093-.5798-.598-.8019-.7457-.8562-.1612-.0576-.3374-.0868-.5703-.0868h-.4266-.053c-.1067 0-.2134 0-.3198-.0542-.1602-.0538-.2135-.108-.2135-.2705 0-.1082.0533-.2166.107-.2709.1065-.0542.2129-.0542.3729-.0542h.0534.4263 1.1729v-.9204h-1.7592c-.0989 0-.1892.0077-.2747.0197-.7148.1381-1.0047.603-1.0047 1.1177 0 1.0928.8528 1.1374 1.652 1.1792.0719.0037.1433.0075.2137.0119.16 0 .2665.0542.3198.1084.0531.0542.1066.162.1066.2706 0 .1084-.0535.2165-.1066.2708-.1065.1084-.2133.1084-.3733.1084h-1.7053v.8121z" fill-rule="evenodd"/></g><path clip-rule="evenodd" d="m33.4783 0h-31.95656c-.840434 0-1.52174.671573-1.52174 1.5v21c0 .8284.681306 1.5 1.52174 1.5h31.95656c.8404 0 1.5217-.6716 1.5217-1.5v-21c0-.828427-.6813-1.5-1.5217-1.5zm-32.71743 1.5c0-.41421.34065-.75.76087-.75h31.95656c.4202 0 .7608.33579.7608.75v21c0 .4142-.3406.75-.7608.75h-31.95656c-.42022 0-.76087-.3358-.76087-.75z" fill="#e3e5ea" fill-rule="evenodd"/></svg>