<svg fill="none" height="24" viewBox="0 0 35 24" width="35" xmlns="http://www.w3.org/2000/svg"><path clip-rule="evenodd" d="m33.4783 0h-31.95656c-.840434 0-1.52174.671573-1.52174 1.5v21c0 .8284.681306 1.5 1.52174 1.5h31.95656c.8404 0 1.5217-.6716 1.5217-1.5v-21c0-.828427-.6813-1.5-1.5217-1.5zm-32.71743 1.5c0-.41421.34065-.75.76087-.75h31.95656c.4202 0 .7608.33579.7608.75v21c0 .4142-.3406.75-.7608.75h-31.95656c-.42022 0-.76087-.3358-.76087-.75z" fill="#e3e5ea" fill-rule="evenodd"/><path d="m1.52161.75c-.42021 0-.760868.33579-.760868.75v21c0 .4142.340658.75.760868.75h31.95649c.4203 0 .7609-.3358.7609-.75v-21c0-.41421-.3406-.75-.7609-.75z" fill="#fff"/><path d="m13.3154 5.7832h7.9892v12.4037h-7.9892z" fill="#ff5f00"/><path d="m14.1715 11.9989c-.002-2.41605 1.1361-4.69881 3.0862-6.19052-3.313-2.53745-8.0705-2.16785-10.92914.84906-2.85865 3.0169-2.85865 7.66826 0 10.68516 2.85864 3.0169 7.61614 3.3865 10.92914.849-1.9508-1.4922-3.0889-3.7759-3.0862-6.1927z" fill="#eb001b"/><path d="m30.3309 12.0011c0 3.0147-1.7664 5.7648-4.5488 7.0822s-6.0924.9709-8.5243-.8923c1.9491-1.4929 3.0871-3.7751 3.0871-6.191 0-2.41593-1.138-4.69813-3.0871-6.19095 2.4319-1.86328 5.7419-2.20979 8.5243-.89237s4.5488 4.06749 4.5488 7.08222z" fill="#f79e1b"/></svg>