<svg fill="none" height="24" viewBox="0 0 35 24" width="35" xmlns="http://www.w3.org/2000/svg"><path d="m1.52161.75c-.42021 0-.760868.33579-.760868.75v21c0 .4142.340658.75.760868.75h31.95649c.4203 0 .7609-.3358.7609-.75v-21c0-.41421-.3406-.75-.7609-.75z" fill="#fff"/><g clip-rule="evenodd" fill-rule="evenodd"><path d="m.40625 23.3533h34.23915v-3.3767h-34.23915z" fill="#f1ad2b"/><path d="m.354492 4.02325h34.239108v-3.376766h-34.239108z" fill="#182e66"/><path d="m16.6202 7.33876-1.8846 9.34694h-2.2796l1.8848-9.34694zm9.5903 6.03554 1.2001-3.51022.6902 3.51022zm2.5446 3.3114h2.1077l-1.8415-9.34694h-1.9443c-.4384 0-.8076.26957-.9711.68519l-3.4206 8.66175h2.3941l.4752-1.3958h2.9242zm-5.951-3.0514c.01-2.4667-3.2145-2.6035-3.1931-3.70575.007-.33497.308-.69155.9666-.78274.3264-.04469 1.2271-.08084 2.2483.41816l.3993-1.98292c-.5487-.21036-1.2543-.41308-2.1323-.41308-2.2536 0-3.8389 1.26975-3.8516 3.08953-.0144 1.3457 1.1326 2.0961 1.9948 2.5443.8889.4579 1.1869.7518 1.1826 1.1611-.0062.627-.7091.9048-1.3632.9151-1.1469.0191-1.8114-.3286-2.3413-.5907l-.4137 2.0492c.5334.2589 1.5165.4845 2.5342.496 2.3957 0 3.9624-1.2549 3.9694-3.1982zm-9.4411-6.29554-3.69349 9.34694h-2.40938l-1.81773-7.45957c-.11011-.45849-.20618-.62725-.5413-.82089-.54815-.31608-1.45316-.61144-2.24876-.79509l.05377-.27139h3.87899c.4942 0 .93858.34877 1.0516.95258l.96015 5.40906 2.37135-6.36164z" fill="#182e66"/><path d="m33.4783 0h-31.95656c-.840434 0-1.52174.671573-1.52174 1.5v21c0 .8284.681306 1.5 1.52174 1.5h31.95656c.8404 0 1.5217-.6716 1.5217-1.5v-21c0-.828427-.6813-1.5-1.5217-1.5zm-32.71743 1.5c0-.41421.34065-.75.76087-.75h31.95656c.4202 0 .7608.33579.7608.75v21c0 .4142-.3406.75-.7608.75h-31.95656c-.42022 0-.76087-.3358-.76087-.75z" fill="#e3e5ea"/></g></svg>